<?xml version="1.0" standalone="no"?>
<!DOCTYPE svg PUBLIC "-//W3C//DTD SVG 20010904//EN"
 "http://www.w3.org/TR/2001/REC-SVG-20010904/DTD/svg10.dtd">
<svg version="1.0" xmlns="http://www.w3.org/2000/svg"
 width="512.000000pt" height="512.000000pt" viewBox="0 0 512.000000 512.000000"
 preserveAspectRatio="xMidYMid meet">
<metadata>
Created by potrace 1.14, written by Peter Selinger 2001-2017
</metadata>
<g transform="translate(0.000000,512.000000) scale(0.100000,-0.100000)"
fill="#000000" stroke="none">
<path d="M50 5092 c-16 -16 -33 -47 -39 -69 -8 -29 -10 -743 -9 -2474 3 -2414
3 -2434 23 -2468 11 -19 33 -43 48 -55 l28 -21 2442 -3 c2734 -3 2503 -9 2553
69 l24 39 0 2461 0 2462 -21 33 c-11 19 -29 39 -39 44 -12 7 -886 10 -2500 10
l-2482 0 -28 -28z m4992 -31 l33 -29 0 -2462 0 -2462 -33 -29 -32 -29 -2446 0
-2446 0 -34 34 -34 34 0 2452 0 2452 34 34 34 34 2446 0 2446 0 32 -29z"/>
<path d="M259 4856 c-2 -2 -3 -1037 -1 -2300 l2 -2296 2305 0 2305 0 0 2300 0
2300 -2303 0 c-1267 0 -2306 -2 -2308 -4z m904 -369 c16 -10 37 -32 47 -50 18
-29 20 -52 20 -252 0 -246 -4 -264 -72 -305 -31 -18 -51 -20 -283 -20 -232 0
-252 2 -283 20 -67 41 -72 60 -72 298 0 195 2 216 21 253 14 29 33 46 62 60
38 18 63 19 287 17 217 -3 249 -5 273 -21z m3422 -38 c50 -44 57 -80 53 -271
-3 -182 -7 -194 -72 -242 -26 -20 -42 -21 -397 -24 l-369 -3 0 -1094 0 -1095
135 0 136 0 -3 -73 -3 -72 -145 0 c-160 0 -190 9 -234 68 l-21 28 -3 1117 c-1
614 0 1131 3 1149 7 38 48 90 84 106 17 8 147 14 391 17 l365 5 0 135 0 135
-1403 3 -1402 2 2 -1087 3 -1088 777 -5 776 -5 27 -25 c56 -52 60 -71 60 -255
0 -187 -7 -213 -68 -259 l-28 -21 -1029 0 c-1023 0 -1029 0 -1056 21 -15 11
-37 33 -48 48 -21 27 -21 36 -24 912 l-2 884 -270 0 -270 0 0 70 0 70 285 0
c315 0 323 -1 367 -62 l23 -33 5 -883 5 -882 985 0 985 0 0 137 0 138 -770 5
c-857 6 -801 1 -846 73 -19 31 -19 56 -17 1167 3 1117 3 1135 23 1162 47 62
-69 57 1512 58 l1442 0 36 -31z m-3435 -3290 l0 -159 -30 0 -30 0 0 158 c0 87
2 161 5 164 3 3 17 3 30 0 l25 -4 0 -159z m298 139 c3 -27 2 -27 -48 -25 -47
2 -54 -1 -81 -31 -24 -27 -29 -41 -29 -83 0 -43 5 -55 31 -81 28 -29 34 -30
85 -25 55 6 55 6 52 -21 -3 -25 -6 -27 -60 -30 -110 -6 -168 50 -168 160 0
105 66 171 165 166 46 -3 50 -5 53 -30z m302 2 c0 -29 -2 -30 -45 -30 l-45 0
0 -135 0 -135 -30 0 -30 0 0 135 0 135 -50 0 c-47 0 -50 2 -50 25 l0 24 123 4
c67 1 123 4 125 5 1 1 2 -11 2 -28z m688 21 c8 -5 12 -17 10 -27 -3 -16 -12
-19 -57 -19 -47 0 -56 -4 -83 -34 -28 -31 -30 -39 -26 -89 4 -45 10 -60 33
-80 25 -21 36 -24 82 -19 50 5 53 4 53 -18 0 -28 -17 -35 -78 -35 -103 0 -155
60 -150 170 4 75 31 124 82 146 35 15 114 18 134 5z m605 -25 c40 -27 57 -66
57 -133 0 -109 -48 -152 -177 -156 l-78 -2 -3 150 c-1 82 -1 154 2 160 6 18
166 2 199 -19z m539 -82 c18 -57 35 -104 38 -104 3 0 20 47 38 104 l32 104 41
4 c24 2 43 -1 45 -7 3 -6 3 -78 2 -160 l-3 -150 -27 -3 -28 -3 -1 113 c0 124
0 124 -50 -19 -47 -137 -58 -132 -121 62 l-23 70 -3 -113 -3 -113 -27 3 -27 3
-3 150 c-1 82 -1 154 2 160 2 6 21 9 44 7 l41 -4 33 -104z m359 39 l35 -62 38
63 c30 52 42 65 66 68 17 3 32 3 34 0 3 -2 -20 -45 -51 -95 -51 -85 -55 -96
-57 -157 -1 -63 -2 -65 -28 -68 -28 -3 -28 -3 -28 60 0 58 -4 70 -55 157 -30
51 -55 97 -55 101 0 4 15 4 32 1 27 -6 39 -18 69 -68z m-1827 -84 c31 -83 56
-155 56 -160 0 -5 -13 -9 -30 -9 -25 0 -31 5 -41 40 l-12 40 -57 0 -57 0 -16
-40 c-12 -31 -21 -40 -40 -40 -13 0 -26 2 -29 5 -3 3 19 70 48 148 30 78 56
148 59 155 2 6 17 12 33 12 28 0 31 -4 86 -151z m609 -1 c32 -84 57 -156 57
-160 0 -5 -13 -8 -28 -8 -24 0 -31 6 -45 40 -15 40 -16 40 -70 40 -54 0 -54 0
-70 -40 -13 -35 -19 -40 -47 -40 -22 0 -31 4 -27 13 9 22 34 90 67 177 18 47
36 95 41 108 6 16 17 22 37 22 28 0 30 -5 85 -152z m657 127 c0 -24 -2 -25
-70 -25 l-70 0 0 -40 0 -40 60 0 c57 0 60 -1 60 -25 0 -24 -3 -25 -60 -25
l-60 0 0 -46 0 -45 73 2 c70 2 72 2 72 -22 0 -24 -2 -24 -102 -27 l-103 -3 0
161 0 160 100 0 100 0 0 -25z m-2198 -596 l3 -71 54 71 c48 63 57 71 87 71 19
0 34 -3 34 -6 0 -3 -27 -40 -60 -81 l-59 -75 65 -76 66 -77 -36 -3 c-31 -3
-40 2 -64 30 -15 18 -42 49 -59 68 l-32 35 -1 -67 0 -68 -30 0 -30 0 0 160 0
160 30 0 29 0 3 -71z m696 44 c3 -22 0 -23 -67 -23 l-71 0 0 -40 0 -40 55 0
c52 0 55 -1 55 -25 0 -24 -3 -25 -55 -25 l-55 0 0 -45 0 -45 70 0 c68 0 70 -1
70 -25 l0 -25 -100 0 -100 0 0 160 0 161 98 -3 c92 -3 97 -4 100 -25z m509 1
c23 -17 29 -30 31 -68 3 -42 0 -50 -28 -76 l-32 -30 34 -47 c54 -74 53 -73 14
-73 -32 0 -39 6 -76 60 -22 33 -47 60 -55 60 -12 0 -15 -14 -15 -60 l0 -60
-30 0 -30 0 0 161 0 161 79 -3 c61 -3 86 -9 108 -25z m565 -134 c32 -85 58
-156 58 -157 0 -2 -14 -3 -30 -3 -26 0 -32 6 -46 40 -16 40 -17 40 -70 40
l-53 0 -12 -40 c-11 -36 -15 -40 -45 -40 l-33 0 19 53 c10 28 34 95 54 147 20
52 39 101 41 108 3 8 16 12 32 10 26 -3 31 -13 85 -158z m418 25 l0 -135 70 0
c68 0 70 -1 70 -25 l0 -25 -100 0 -100 0 0 160 0 160 30 0 30 0 0 -135z m650
-13 c70 -188 68 -174 29 -170 -27 2 -34 9 -44 38 -11 34 -14 35 -67 38 l-55 3
-12 -41 c-11 -37 -15 -40 -47 -40 -19 0 -33 3 -30 8 2 4 27 68 54 142 28 74
54 143 57 153 4 10 18 17 34 17 24 0 29 -9 81 -148z"/>
<path d="M652 4185 l3 -176 220 0 220 0 3 176 2 175 -225 0 -225 0 2 -175z"/>
<path d="M2902 1163 l3 -108 30 3 c68 7 95 29 109 91 7 32 -16 84 -45 105 -13
9 -41 16 -62 16 l-38 0 3 -107z"/>
<path d="M2012 1191 c-16 -52 -16 -51 19 -51 32 0 33 2 8 68 -11 30 -14 28
-27 -17z"/>
<path d="M2619 1185 l-17 -45 35 0 c31 0 34 2 27 23 -11 36 -23 67 -26 67 -2
0 -10 -20 -19 -45z"/>
<path d="M2260 671 c0 -57 8 -61 69 -40 25 9 31 16 31 39 0 34 -4 37 -58 46
l-42 7 0 -52z"/>
<path d="M2847 626 l-16 -46 35 0 c32 0 35 2 28 23 -3 12 -12 33 -19 46 -12
23 -12 23 -28 -23z"/>
<path d="M3919 625 l-17 -45 35 0 c31 0 34 2 27 23 -11 36 -23 67 -26 67 -2 0
-10 -20 -19 -45z"/>
</g>
</svg>
