<?xml version="1.0" encoding="UTF-8"?>
<svg width="604px" height="297px" viewBox="0 0 604 297" version="1.1" xmlns="http://www.w3.org/2000/svg" xmlns:xlink="http://www.w3.org/1999/xlink">
    <title>GetworkEmployerPageImage_shutterstock_1303432072</title>
    <g id="Employer-Page" stroke="none" stroke-width="1" fill="none" fill-rule="evenodd">
        <g id="Employers-Page" transform="translate(-192.000000, -577.000000)" fill-rule="nonzero">
            <g id="GetworkEmployerPageImage_shutterstock_1303432072" transform="translate(192.000000, 577.000000)">
                <g id="Group" transform="translate(128.000000, 38.000000)">
                    <polygon id="Path" fill="#FF7951" points="249.223829 78.0550546 244.961125 88.7021835 254.896113 95.9530991 264.814117 88.7021835 279.011808 105.004008 375.474592 166 384 166 384 160.328324"></polygon>
                    <path d="M14.3165716,116.415285 L16.456415,122.036018 C16.456415,122.036018 34.8149131,131.545415 49.080536,122.036018 C61.8516651,113.528503 62.2592543,96.0040423 62.2592543,96.0040423 C62.2592543,96.0040423 61.8516651,83.0305072 67.5239485,83.0305072 C73.1962319,83.0305072 78.8685153,86.5795502 78.8685153,86.5795502 L81.704657,72.4003593 L74.6058113,70.9739497 L85.9503781,34.0910724 L84.5238158,11.387386 L73.179249,2.8798715 C73.179249,2.8798715 64.6708239,-7.05405263 50.4731325,9.97795746 C36.2754412,27.0099675 20.719119,48.2702633 20.719119,48.2702633 L0,80.5342904 L15.8789969,90.8078358 L23.5722436,78.0550546 L39.7739154,78.0550546 L26.1876078,109.317199 L18.0188404,106.668152 L14.3165716,116.415285 Z" id="Path" fill="#AEE2DF"></path>
                </g>
                <g id="line_art" fill="#000000">
                    <path d="M560.875312,297 L487.158043,297 C486.954544,297 486.768004,296.898217 486.666255,296.72858 C486.479715,296.440195 467.130415,267.279465 449.510852,250.400509 C432.366117,233.96261 417.934694,214.929254 413.881686,206.023272 C410.218716,197.965478 398.415813,180.713319 398.297105,180.543681 C398.110565,180.27226 398.178398,179.899057 398.449729,179.712456 C398.72106,179.525854 399.09414,179.593709 399.280681,179.86513 C399.280681,179.86513 399.280681,179.86513 399.280681,179.86513 L399.280681,179.86513 C399.280681,179.86513 399.280681,179.86513 399.280681,179.882094 C399.857259,180.713319 422.259034,213.029311 431.959121,222.495098 C436.249544,226.68515 443.066738,232.605508 450.27397,238.882105 C459.567061,246.956862 469.165399,255.320003 473.676278,260.256462 C481.697504,269.043698 492.974703,284.904828 495.959345,291.605519 L553.939411,291.605519 C541.254682,280.782631 529.740068,267.364284 519.616026,251.638864 C510.696016,237.77946 504.523233,224.479859 501.708173,216.659559 C500.317601,212.774854 499.367942,207.159845 498.723531,200.951103 L444.440352,168.567255 C442.897156,169.992212 441.303086,171.094858 439.929472,171.586807 C439.115479,171.875191 438.35236,172.180539 437.606199,172.485887 C433.909313,173.995663 430.975545,175.183128 425.95592,171.247532 C422.699947,168.702965 419.834012,164.970935 417.510739,161.968347 C415.916669,159.898766 414.424348,157.947932 413.695146,157.676511 C413.491647,157.591692 413.339024,157.405091 413.322065,157.184562 C413.322065,157.167598 413.101609,155.301583 412.287615,153.113256 C411.67712,152.214176 411.30404,151.281168 411.100542,150.551726 C411.032709,150.263341 411.168375,149.957993 411.456664,149.856211 C411.727995,149.737464 412.050201,149.856211 412.202824,150.110667 C412.677654,150.941892 413.067692,151.773117 413.37294,152.587379 C414.203891,153.774843 415.560547,154.945343 417.663363,154.809633 C417.917736,154.589104 418.460398,154.131082 419.223517,153.520386 L407.369739,146.446492 C407.26799,146.378637 407.183199,146.293818 407.132324,146.175071 C404.995592,141.238613 400.823876,136.217335 397.059157,133.079037 C396.499537,133.367421 396.024707,133.72366 395.634669,134.164718 C395.024174,134.860233 394.651094,135.691458 394.447595,136.539647 C394.532386,136.709285 394.600219,136.895886 394.68501,137.065524 C395.939916,139.96633 396.923492,142.256439 396.27908,143.494795 C396.126456,143.783179 395.821209,144.139418 395.193756,144.275129 C392.785692,144.750114 389.546677,147.175934 388.664851,149.143732 C388.630935,149.228551 388.58006,149.296406 388.512227,149.347298 C388.681809,150.263341 388.919224,150.907965 388.919224,150.924929 C388.936182,150.958856 388.936182,150.97582 388.936182,151.009748 C389.258388,152.485596 389.529719,154.758742 389.818008,157.167598 C390.36067,161.747817 391.123789,168.024414 392.446528,169.042241 C394.786759,170.857365 397.008283,176.998252 397.110032,177.252708 C397.177865,177.43931 397.143948,177.625911 397.042199,177.778585 C396.94045,177.931259 396.75391,178.033042 396.56737,178.033042 C392.361737,178.168752 389.970632,176.743795 388.698767,175.522403 C387.376028,174.233156 386.765533,172.689453 386.765533,171.722517 C386.765533,170.6538 387.715192,169.279734 388.495269,168.36369 C385.900665,168.278871 383.865682,167.498537 382.441194,166.056616 C380.134879,163.732579 380.32142,160.543389 380.32142,160.407679 C380.32142,160.339824 380.338378,160.255005 380.372294,160.18715 C380.982789,158.880939 384.340512,155.895315 386.053289,154.43643 C380.134879,152.90969 379.592217,147.498246 379.575259,147.447355 C379.558301,147.311644 379.592217,147.175934 379.677008,147.074152 C380.609709,145.683122 383.458685,143.56265 384.153971,143.053737 C384.54401,141.815381 384.510093,137.913713 384.35747,135.012907 C384.340512,134.673632 384.306595,134.35132 384.306595,134.012044 C384.289637,133.689733 384.54401,133.418312 384.866216,133.401348 C385.188421,133.384385 385.459752,133.638841 385.493669,133.961153 C385.510627,134.096863 385.527585,134.436139 385.544543,134.894161 C385.798916,138.354771 386.765533,142.273403 387.54561,145.055462 C387.698234,144.648332 387.901732,144.241201 388.156105,143.867998 C389.173597,142.375186 390.920291,141.543961 393.328354,141.391287 C393.124856,140.390424 392.836567,138.524409 393.192689,136.658393 C392.666985,135.420038 392.158239,134.164718 391.768201,132.96029 C391.496869,132.078174 390.852458,131.060347 390.021507,129.974666 C387.392986,130.280014 385.324087,132.19692 385.29017,132.213884 C385.10363,132.400486 384.815341,132.41745 384.577926,132.298703 L373.826431,126.005142 C373.792515,125.988179 373.775557,125.971215 373.74164,125.954251 L358.055311,113.044818 L356.325575,111.9761 L262.46197,232.520689 C262.411096,232.57158 262.343263,232.622472 262.27543,232.656399 C261.936266,232.843001 261.936266,232.843001 261.936266,232.843001 C261.664935,232.92782 261.461437,232.741218 261.34273,232.486762 C257.645843,225.412867 251.473061,227.143172 246.02948,228.669912 C244.842407,229.009188 243.740124,229.314536 242.671758,229.535065 L242.298678,229.619883 C230.902771,231.994812 224.509532,232.266232 222.423674,230.434145 C221.185726,230.586819 220.083443,230.586819 219.167701,230.417181 C216.183059,235.455422 218.998119,243.207868 220.643064,247.584522 C220.880478,247.635413 221.100935,247.652377 221.355308,247.584522 C221.660555,247.516667 221.982761,247.703268 222.050594,248.008616 C222.135385,248.313964 221.948845,248.636276 221.660555,248.721095 L132.952242,276.219375 C132.765702,276.270266 132.562203,276.236339 132.40958,276.117592 C132.256956,275.998846 132.172165,275.812244 132.172165,275.625643 C132.426538,270.299017 126.745543,268.704422 122.590785,267.550886 L122.014207,267.398212 C117.622034,266.17682 115.553135,265.600051 113.840357,262.461753 C113.636859,262.614427 113.416402,262.71621 113.229862,262.784065 C111.059213,263.547435 107.090996,261.579637 104.089396,259.476128 C100.562091,257.016381 97.8318219,254.132539 96.5769155,251.587973 C96.5429991,251.604937 96.5260409,251.638864 96.4921245,251.655828 C92.5747817,255.014655 87.2159924,259.594875 89.2340175,263.547435 C90.5397984,266.108965 93.558357,268.449966 96.4073336,269.094589 C97.7131145,269.382973 99.5954741,269.484756 101.240419,268.212473 C101.393043,268.093726 101.579583,268.059799 101.766123,268.11069 C101.952663,268.161582 102.088329,268.297292 102.156161,268.483893 C104.123312,273.810519 116.197546,276.609542 120.911924,276.626506 C121.217172,276.626506 121.454586,276.847035 121.505461,277.152383 C121.539377,277.440767 121.352837,277.729151 121.064548,277.797006 L47.6864419,296.983036 C47.6355673,297 47.5846927,297 47.5338181,297 L0.593536794,297 C0.271331106,297 0,296.72858 0,296.406268 C0,296.083956 0.271331106,295.812536 0.593536794,295.812536 L47.4659853,295.812536 L117.520285,277.508622 C112.042789,276.660433 103.716315,274.115867 101.376084,269.586539 C99.9007216,270.468655 98.103153,270.706148 96.1699189,270.26509 C92.947862,269.535647 89.6749305,266.991081 88.1995676,264.090275 C85.7745459,259.306491 91.7777466,254.166467 95.745964,250.756748 C95.9833787,250.553183 96.2207934,250.349617 96.44125,250.163016 C96.5938737,250.044269 96.7804138,249.993378 96.966954,250.044269 C97.1534941,250.095161 97.3061179,250.230871 97.3739506,250.417472 C98.3066513,252.860256 101.13867,255.964627 104.784681,258.509193 C108.142404,260.850194 111.46621,262.156405 112.856782,261.664456 C113.043322,261.5966 113.195946,261.494818 113.314653,261.342144 C113.06028,260.782339 112.822865,260.154679 112.568493,259.459165 C112.551534,259.39131 112.534576,259.323454 112.534576,259.255599 C112.534576,258.577048 112.568493,257.983316 112.653284,257.457439 C111.09313,254.692344 107.854115,253.369169 104.716849,252.096886 C101.528708,250.790675 98.5101496,249.569284 97.577449,246.872043 C96.8991212,244.938173 97.4417834,242.461462 99.2054356,239.340127 C106.327877,226.753005 111.890165,214.047138 117.774658,200.594863 C120.555802,194.216484 123.438695,187.634539 126.49117,181.103485 C126.982958,180.034768 127.491703,178.949086 128.017407,177.880368 C131.578628,170.365415 135.241598,162.579042 136.733919,154.792669 C136.869585,154.097155 136.852627,152.824872 136.835668,151.586516 C136.81871,148.889276 136.835668,147.192898 137.446163,146.446492 C138.599321,145.021535 140.023809,144.750114 141.278715,144.512621 C143.1102,144.173346 144.415981,143.935853 144.890811,140.390424 C144.907769,140.220786 145.009518,140.051149 145.162142,139.96633 C145.314765,139.881511 145.501306,139.847583 145.670887,139.915438 C146.705337,140.288641 147.604122,140.831482 148.452031,141.340395 C150.130893,142.358222 151.487548,143.189447 153.573406,142.612679 C153.047702,142.018946 152.454165,141.442178 151.826712,140.848446 C150.978802,140.051149 150.113934,139.219924 149.384732,138.269952 C148.859028,137.608365 148.435073,136.607502 147.977202,135.538784 C147.451498,134.300429 146.857961,132.909399 146.196592,132.400486 C144.314232,130.958565 141.193924,130.653217 138.192324,130.381796 C135.987759,130.178231 133.698402,129.957702 131.849959,129.279151 C129.916725,131.65408 128.967066,134.809342 129.289272,137.252126 C132.206081,138.337807 134.953309,139.47438 136.81871,140.492207 C137.022208,140.610953 137.140916,140.831482 137.123958,141.068975 C137.106999,141.306468 136.954376,141.510033 136.716961,141.577888 C132.002583,143.189447 129.882809,141.323432 129.051857,140.068112 C128.678777,139.508308 128.407446,138.84672 128.237864,138.151206 C121.861583,135.810205 114.857849,133.740624 114.739141,133.706696 C114.586518,133.655805 114.450852,133.554022 114.383019,133.401348 C114.315187,133.248675 114.298228,133.079037 114.349103,132.926363 L126.30463,100.050566 C126.355504,99.8978918 126.474212,99.7791453 126.609877,99.7112902 C126.762501,99.6434351 126.915125,99.6434351 127.067749,99.6943264 C128.712693,100.321986 130.985091,101.068392 133.189657,101.797835 C135.055058,102.408531 136.801752,102.985299 138.22624,103.511176 C138.378864,103.562067 138.51453,103.697777 138.582362,103.850451 C138.650195,104.003125 138.633237,104.189727 138.565404,104.342401 C137.85316,105.733431 136.547379,107.446772 135.173765,109.27886 C132.155207,113.265347 128.390488,118.235733 129.560603,121.645452 C130.120223,123.273974 132.511329,124.953388 136.140382,126.259599 C139.040234,127.311353 142.330123,127.922049 144.195525,127.786339 C149.486481,113.36713 157.931662,100.06753 167.987871,90.2963948 C169.836314,88.4982346 172.244378,86.7000744 174.889856,84.8510228 C176.755257,82.4421667 178.824157,80.2199121 180.808266,78.0655126 C182.08013,76.6914468 183.402869,75.2664896 184.657776,73.8076049 C185.37002,72.9933437 186.133139,71.9076621 186.947132,70.7710891 C189.304321,67.4631529 191.966757,63.6971947 195.273605,63.0186437 C195.460145,62.9847161 195.646686,63.0356075 195.782351,63.1543539 C195.918017,63.2731003 196.002808,63.4597019 195.985849,63.6463034 C195.358396,72.0772998 186.167055,78.4556794 178.04408,84.1046167 C177.247045,84.6474575 176.466968,85.1902983 175.720807,85.7331392 C175.41556,86.1402698 175.110312,86.5474004 174.805065,86.954531 C172.939664,89.5330249 171.057304,92.5186494 169.039279,95.6569479 C165.308476,101.526414 161.458966,107.565518 157.321167,111.84039 L170.311144,116.132225 C170.463767,116.183116 170.582475,116.284899 170.667266,116.437573 C170.735098,116.590247 170.752057,116.742921 170.684224,116.895595 L158.813488,149.143732 C158.711739,149.44908 158.372575,149.601754 158.067327,149.499971 L146.620546,145.818832 C146.247466,146.446492 145.73872,147.15897 145.162142,147.973232 C143.652862,150.093704 141.583963,152.977545 142.143583,154.57214 C143.025409,157.150634 149.995227,158.422917 153.72603,159.118432 C154.709605,159.305034 155.574473,159.457708 156.151051,159.593418 C159.135694,160.339824 162.985204,160.628208 166.902547,160.204114 C169.615858,155.929242 172.837914,152.434705 176.857006,151.501697 C178.637617,151.094566 180.6726,151.382951 182.775416,151.925791 C185.793975,147.413427 187.354129,140.543098 188.84645,133.910262 C189.473903,131.111239 190.118314,128.278288 190.881433,125.581048 C190.203105,123.782888 190.525311,121.781162 191.169722,120.28835 C191.373221,119.830328 191.525844,119.423197 191.678468,119.100886 C192.40767,117.336653 192.628127,116.810776 193.984783,117.285762 C194.001741,117.285762 194.001741,117.285762 194.018699,117.302725 C196.308055,112.552868 199.089199,108.057468 201.785552,103.697777 C201.870343,103.562067 201.938176,103.443321 202.022967,103.307611 C201.565095,101.933545 201.344639,100.389841 201.531179,98.6086448 C202.039925,93.8927152 203.803577,89.5499887 205.516355,85.3429723 C207.53438,80.3895499 209.620238,75.2834534 209.603279,69.5666611 C209.586321,62.3570564 207.670045,56.8268656 205.635062,50.9573993 C204.719319,48.3110503 203.769661,45.5798824 202.989584,42.6451492 C202.83696,42.0683809 202.684336,41.4916125 202.548671,40.9148441 C201.921217,40.8978804 201.192015,40.9487717 200.327147,41.0505543 C198.173456,41.2880472 195.765393,41.6442865 193.44212,42.0005258 C192.831625,42.0853446 192.22113,42.1871273 191.593677,42.2719462 C191.28843,42.4415839 190.983182,42.5942579 190.660976,42.7469319 C189.609568,43.2897727 188.524244,43.8665411 187.506752,44.4433094 C179.92644,48.8029998 177.806665,52.8743059 175.059438,60.5080049 C172.108712,68.6845447 167.445209,76.0637871 160.373642,83.7314136 C159.288317,84.9188779 158.202993,86.1572336 157.151585,87.3616616 C155.048769,89.7705177 152.87812,92.2641928 150.419182,94.5203749 C149.232108,95.6230203 147.739787,96.5221004 146.315299,97.387253 C144.263357,98.6425724 142.330123,99.8130729 141.380464,101.424632 C141.210882,101.696052 140.85476,101.797835 140.583429,101.645161 C140.29514,101.492487 140.193391,101.136247 140.346015,100.847863 C144.568605,92.9766713 150.130893,85.6992116 155.031811,79.2869044 C156.897212,76.8441208 158.864363,74.4183009 160.76368,72.0772998 C165.783306,65.8515942 170.989471,59.4223233 174.805065,52.1448636 C175.364685,51.0761457 175.856473,50.0922467 176.280428,49.2270942 C178.552826,44.5959834 179.587276,42.4755115 185.726142,41.8478518 C187.455878,41.6612503 189.338237,41.4067936 191.237555,41.1353732 C196.341972,38.4550967 200.835893,35.6391099 199.648819,29.0062737 C197.020299,26.4447436 196.087599,20.5752772 197.39338,14.5870645 C198.868742,7.78459046 202.752169,2.78027667 207.788753,1.18568177 C218.574164,-2.22403712 227.4433,2.47492871 230.970604,5.78286494 C232.802089,7.49620627 233.683915,9.17562005 233.378667,10.3630843 C233.378667,10.3800481 233.361709,10.3970119 233.361709,10.4139757 C232.581632,12.6023027 231.903305,13.1281798 231.140186,13.5522741 C230.648398,13.8236946 230.25836,14.0442236 229.851363,16.6227175 C229.427408,19.4047767 231.428475,21.4065022 233.039504,23.0010971 C234.10787,24.069815 234.938821,24.90104 234.904905,25.8170839 C234.887947,26.2411783 234.684448,26.6143813 234.311368,26.9366931 C234.260494,26.9875844 234.175703,27.0215119 234.10787,27.0554395 C232.802089,27.4795339 232.022012,28.0223747 231.682848,28.7348533 C231.174102,29.8374987 231.818514,31.3472747 232.496841,32.9418696 C233.243002,34.7061023 234.023079,36.53819 233.293877,38.1327849 C232.22551,40.4907497 229.681781,40.3889671 227.4433,40.3041482 C226.171435,40.2532569 224.967403,40.2023656 224.238201,40.6094962 C222.966336,41.2880472 221.762305,42.4924753 220.575231,43.646012 C219.947778,44.2736717 219.354241,44.8504401 218.743746,45.3593533 C218.082376,45.9191579 217.48884,46.4619987 216.980094,46.9369845 C215.487773,48.3110503 214.419406,49.311913 213.147542,49.1083477 C211.94351,48.9047824 210.841228,47.649463 209.213241,44.6129472 C207.042592,40.5755686 207.05955,34.6382472 209.213241,29.9732089 C206.092933,27.8697007 204.888901,24.6635471 206.008142,21.270792 C206.889968,18.5905155 209.009743,16.7245002 210.926018,16.9111017 C211.892636,17.0128844 213.571497,17.7253629 214.148075,21.3895385 C214.894236,21.5422124 215.877811,21.5591762 216.674846,21.4404298 C215.657355,18.3699864 215.826937,16.0120216 217.20055,14.4004629 C219.032035,12.2290997 223.017211,11.5675124 228.782997,12.4496287 C225.035236,8.83634454 219.64253,6.80069148 214.555072,7.13996699 C210.400314,7.42835117 206.991717,9.36222159 204.956734,12.5683752 C201.14114,18.5905155 200.666311,27.7679181 203.532246,39.8461263 C206.347306,40.1514742 207.178258,41.678214 208.246624,44.1040339 C208.823202,45.3932809 209.535447,47.0048396 210.875144,48.7690722 C211.485639,49.5663697 212.011343,50.2279569 212.486172,50.8216891 C215.216442,54.2483717 215.776062,54.9438865 215.453856,61.0678095 C215.386024,62.4418753 215.318191,63.7820136 215.267316,65.0712605 C214.809445,75.317381 214.436365,83.4260657 209.450656,93.0614902 C207.602212,96.6408468 205.46548,100.135385 203.379622,103.511176 C204.091866,105.3263 205.295898,106.85304 206.550804,108.447635 C207.53438,109.702954 208.551871,110.992201 209.281074,112.434122 C210.485105,111.942172 211.773928,111.178803 213.079709,110.398469 C217.115759,107.989613 221.677514,105.258445 225.679647,110.31365 C225.815313,110.500251 225.849229,110.737744 225.74748,110.94131 C225.645731,111.144875 225.442233,111.263621 225.204818,111.280585 C224.882612,111.280585 224.390825,111.535042 223.882079,111.857354 C224.543448,112.162701 225.170902,112.535905 225.713564,112.943035 C225.832271,113.044818 225.917062,113.180528 225.93402,113.333202 C226.442766,116.776848 225.527024,119.609799 224.560407,122.595423 C224.356908,123.240047 224.136452,123.918598 223.932953,124.597149 C223.865121,124.817678 223.67858,124.987316 223.441166,125.021243 C218.302833,125.733722 213.571497,124.223946 208.992784,122.544532 C208.534913,123.223083 207.958335,123.698069 207.280007,123.952526 C206.194682,124.359656 205.058483,124.054308 204.24449,123.1213 C203.718786,122.510605 203.328748,121.611524 203.21004,120.474952 C200.920684,119.745509 198.665244,119.185705 196.341972,119.049994 C195.680602,119.016067 195.13794,118.931248 194.713985,118.829465 C194.510487,119.270523 194.306988,119.711582 194.120448,120.169604 C193.391246,121.81509 192.780751,123.664141 192.22113,125.598012 C192.339838,125.852468 192.50942,126.106925 192.69596,126.361382 C194.069574,128.125614 198.478704,129.788064 205.770727,131.29784 C208.127916,131.78979 210.875144,132.129065 213.808911,132.502268 C221.558806,133.469204 230.343151,134.588813 235.651066,138.795829 C242.17997,143.986744 241.365977,157.082779 240.823315,165.734305 C240.755482,166.870878 240.687649,167.939596 240.636775,168.906531 C240.568942,170.178814 240.518067,171.451097 240.450234,172.740344 C239.704074,187.498829 238.940955,202.749263 242.637841,216.947943 C242.722632,217.236327 242.553051,217.558639 242.264761,217.660422 C234.870989,220.340698 226.273184,222.749554 218.692871,224.88699 L218.489373,224.937881 C218.336749,224.988773 218.167167,224.954845 218.031502,224.88699 C217.895836,224.802171 217.794087,224.683425 217.743213,224.530751 C214.741612,213.538224 214.995985,198.91545 215.640396,186.056908 C215.691271,184.937299 215.691271,183.122175 215.674313,181.018666 C215.640396,176.438447 215.589522,170.144886 216.183059,164.733442 C216.352641,163.206702 216.556139,161.832636 216.793554,160.611244 C212.994918,160.526426 209.399781,159.440744 205.65202,158.304171 L205.46548,158.25328 C201.938176,157.184562 198.529579,156.692612 194.900525,156.166735 C193.645619,155.980134 192.339838,155.793532 191.034057,155.589967 C189.473903,155.33551 187.778083,154.792669 185.997473,154.232865 C185.115647,153.961444 184.233821,153.67306 183.368953,153.435567 C179.739899,158.270243 173.668866,160.662136 167.71654,161.425506 C165.715473,164.665587 164.002695,168.346726 162.442541,171.671626 C161.374175,173.961736 160.356684,176.133099 159.390067,177.795549 C155.964511,183.783762 152.115001,189.534482 148.401157,195.0986 C146.077884,198.55921 143.686779,202.121603 141.414381,205.751851 C135.953842,214.403377 130.662886,225.853925 126.881208,237.185727 C126.575961,238.101771 126.30463,239.034779 125.999382,240.035642 C124.914058,243.733745 123.67611,247.923797 120.810175,250.688893 C119.606143,251.859393 118.452986,252.605799 117.418536,253.267387 C115.637926,254.420923 114.416936,255.218221 114.009939,257.389584 C114.196479,257.762787 114.349103,258.13599 114.484769,258.543121 C114.908723,259.866295 114.925682,260.799303 114.739141,261.46089 C116.282337,264.667044 118.029031,265.142029 122.489036,266.380385 L123.065615,266.533059 C127.15254,267.669632 133.240531,269.382973 133.511862,274.981019 L219.744279,248.246109 C217.997585,243.598035 214.843361,235.082219 218.557206,229.518101 C218.692871,229.297572 218.964202,229.212753 219.218575,229.280608 C219.93082,229.484173 220.846562,229.518101 221.89797,229.433282 C221.626639,228.381528 222.169301,227.075317 223.542915,225.463758 C223.712497,225.260193 224.000786,225.192338 224.238201,225.311084 C224.882612,225.599469 227.087177,224.700389 229.03737,223.920055 C233.463458,222.121895 238.99183,219.882676 241.315102,223.597743 C241.399893,223.750417 241.43381,223.920055 241.382935,224.089693 C241.332061,224.25933 241.213353,224.395041 241.043771,224.462896 C240.704607,224.598606 240.331527,224.75128 239.907572,224.937881 C236.210686,226.481585 229.732656,229.178825 224.577365,230.230579 C225.781397,230.552891 227.918129,230.722529 231.699806,230.332362 C235.871522,229.908268 240.331527,228.97526 242.230845,228.585093 L242.603925,228.500274 C243.621417,228.296709 244.723699,227.974397 245.876857,227.652086 C251.354353,226.108382 258.154589,224.208439 262.326305,231.621609 C262.326305,231.621609 261.800601,231.960884 261.834517,231.757319 L355.799871,111.110947 C355.850745,110.839527 356.08816,110.618998 356.376449,110.618998 C356.630822,110.618998 356.851279,110.771672 356.93607,110.992201 L358.631889,112.043955 L377.760732,117.709856 C378.032063,117.794675 378.201645,118.032168 378.184687,118.303588 C378.015105,121.764198 375.759665,123.47754 375.657916,123.545395 C375.454418,123.681105 375.200045,123.698069 374.996547,123.579322 L365.754331,117.86253 L374.623466,125.156954 L384.967965,131.213021 C385.646293,130.670181 387.257321,129.49968 389.292304,129.058622 C385.663251,124.868569 379.795716,120.305314 379.710925,120.237459 C379.456552,120.050857 379.405677,119.694618 379.575259,119.440161 C379.744841,119.185705 380.100963,119.100886 380.372294,119.25356 L388.02044,123.765924 C387.918691,123.206119 387.901732,122.629351 388.02044,122.052583 C388.342645,120.322278 389.682343,118.948212 392.005615,117.981277 C392.05649,117.964313 392.090406,117.947349 392.141281,117.947349 L401.485246,116.4715 C402.536654,115.92866 411.880619,111.229694 416.900244,109.787773 C418.748687,109.261896 421.360249,108.091395 424.141393,106.85304 C429.177977,104.596858 434.892888,102.052291 438.657607,102.052291 C443.04978,102.052291 448.001572,106.666438 451.986748,110.381505 C453.411236,111.721643 454.649184,112.858216 455.63276,113.587659 C457.430328,114.893869 461.093298,118.558045 464.993683,122.408822 C469.199315,126.581911 473.557571,130.907673 475.202516,131.9255 C476.338715,132.621015 478.119325,133.876334 480.001685,135.199509 C483.42724,137.608365 487.683747,140.593989 489.209984,141.052011 C492.16071,141.934128 496.281551,144.359948 498.26566,148.312507 C499.876688,151.535625 499.317068,159.457708 498.994862,164.190601 C498.893113,165.530739 498.82528,166.599457 498.82528,167.193189 C498.82528,167.345863 498.82528,167.60032 498.82528,167.939596 C498.791364,173.724243 498.842238,181.493652 499.232277,189.330917 L512.188337,196.964616 C512.25617,196.998543 512.324003,197.066398 512.374877,197.134253 C513.154954,198.202971 514.138529,200.866284 512.374877,203.292104 C510.204228,206.277728 506.965213,205.785779 506.829548,205.768815 C506.761715,205.751851 506.693882,205.734887 506.626049,205.70096 L500.181936,201.850183 C500.809389,207.617867 501.725131,212.791818 503.013954,216.405102 C503.692282,218.288081 519.310779,261.036796 555.957436,291.74123 L603.406463,291.74123 C603.728669,291.74123 604,292.01265 604,292.334962 C604,292.657273 603.728669,292.928694 603.406463,292.928694 L557.381924,292.928694 C558.687705,293.997412 560.027403,295.049166 561.384058,296.083956 C561.587557,296.23663 561.672347,296.508051 561.587557,296.745543 C561.350142,296.830362 561.129685,297 560.875312,297 Z M487.46329,295.812536 L559.128618,295.812536 C557.856754,294.828637 556.601847,293.81081 555.363899,292.77602 L495.586265,292.77602 C495.34885,292.77602 495.128394,292.64031 495.043603,292.419781 C492.398124,286.177111 480.764803,269.756176 472.81141,261.05376 C468.334447,256.151228 458.753067,247.822015 449.493893,239.764221 C442.269703,233.487624 435.452509,227.550303 431.128169,223.326323 C426.278126,218.593429 418.290816,208.228562 411.422748,198.881522 C412.864194,201.358233 414.1191,203.682271 414.96701,205.531322 C418.341691,212.97842 431.552124,231.53679 450.341803,249.55232 C467.147373,265.667907 485.479181,292.826911 487.46329,295.812536 Z M145.942219,141.255577 C145.229974,144.95368 143.245866,145.326883 141.482214,145.649194 C140.329056,145.869724 139.243732,146.056325 138.361906,147.15897 C137.971867,147.633956 138.005784,149.991921 138.022742,151.552588 C138.0397,152.90969 138.0397,154.198937 137.887076,154.996235 C136.360839,162.935282 132.663953,170.772546 129.068815,178.372318 C128.56007,179.457999 128.051324,180.526717 127.559536,181.595435 C124.524019,188.126488 121.641126,194.708433 118.859983,201.069849 C112.958531,214.556051 107.396243,227.278882 100.239885,239.916895 C98.6458152,242.732882 98.1370694,244.870318 98.6966898,246.481876 C99.4598085,248.670203 102.223994,249.806776 105.157762,250.994241 C107.98978,252.147777 111.127046,253.437024 113.026364,255.896772 C113.72165,254.04772 115.061347,253.165604 116.638459,252.130814 C117.622034,251.48619 118.724317,250.773712 119.843558,249.68803 C122.489036,247.143464 123.625235,243.292687 124.71056,239.560656 C125.015807,238.542829 125.287138,237.592858 125.592386,236.65985 C129.407979,225.243229 134.74981,213.690898 140.261224,204.971518 C142.55058,201.34127 144.958643,197.761913 147.264958,194.301303 C150.978802,188.754148 154.811354,183.037356 158.219951,177.083071 C159.152652,175.454548 160.153185,173.317112 161.221552,171.043966 C162.679956,167.939596 164.274026,164.54684 166.088553,161.459433 C162.323834,161.781745 158.677822,161.476397 155.811888,160.746955 C155.269225,160.611244 154.438274,160.458571 153.471657,160.288933 C148.926861,159.457708 142.07575,158.202388 140.973468,154.962307 C140.227307,152.790944 142.313165,149.873175 144.161608,147.277717 C144.822978,146.344709 145.450431,145.462593 145.772637,144.834933 C145.908302,144.580477 146.21355,144.444766 146.484881,144.546549 L157.846871,148.193761 L169.31061,117.065233 L155.998428,112.654651 C155.794929,112.586796 155.659264,112.434122 155.608389,112.230557 C155.557515,112.026991 155.625347,111.823426 155.777971,111.670752 C160.085353,107.480699 164.121403,101.153211 168.004829,95.0123244 C169.598899,92.5186494 171.108179,90.126757 172.617458,87.93843 C171.176011,89.0241116 169.870231,90.0928295 168.784906,91.1445836 C158.779572,100.881791 150.385265,114.147463 145.162142,128.532745 C145.094309,128.73631 144.907769,128.888984 144.687312,128.922912 C144.382065,128.973803 144.042901,128.990767 143.652862,128.990767 C139.26069,128.990767 129.882809,126.276563 128.424404,122.035619 C127.05079,118.032168 130.849426,112.993926 134.207148,108.566381 C135.360305,107.056605 136.44563,105.59772 137.157874,104.410256 C135.886009,103.952234 134.393688,103.460285 132.816576,102.951371 C130.849426,102.306748 128.814443,101.628197 127.203414,101.034465 L115.671842,132.705834 C117.469411,133.248675 122.862116,134.894161 128.034366,136.760176 C127.864784,133.961153 129.000983,130.636253 131.205548,128.142578 C131.37513,127.955977 131.646461,127.888121 131.883876,127.989904 C133.647528,128.719346 136.004717,128.939876 138.294073,129.160405 C141.465255,129.465753 144.755145,129.771101 146.908836,131.416587 C147.80762,132.112102 148.452031,133.58795 149.062526,135.012907 C149.469523,135.962879 149.87652,136.929814 150.317433,137.489618 C150.99576,138.371735 151.84367,139.169032 152.640705,139.949366 C153.471657,140.746663 154.336525,141.577888 155.048769,142.493932 C155.167476,142.646606 155.201393,142.833208 155.150518,143.002845 C155.099643,143.172483 154.980936,143.325157 154.811354,143.393012 C151.724963,144.682259 149.757812,143.477831 147.841536,142.324294 C147.231041,141.951091 146.603588,141.560925 145.942219,141.255577 Z M224.051661,226.379802 C223.322458,227.295846 222.627172,228.415455 222.93242,229.144898 C228.121627,228.3476 235.600191,225.226266 239.280119,223.699526 C239.415785,223.648634 239.55145,223.580779 239.687116,223.529888 C237.601258,221.511199 233.039504,223.36025 229.308701,224.870026 C226.985428,225.819998 225.204818,226.54944 224.051661,226.379802 Z M217.895836,160.475534 C217.641463,161.71389 217.421007,163.138847 217.251425,164.733442 C216.674846,170.093995 216.725721,176.336664 216.759637,180.882956 C216.776595,183.088247 216.793554,184.85248 216.725721,185.989053 C216.098268,198.525283 215.826937,212.757891 218.625039,223.512924 C225.917062,221.460307 234.124828,219.13627 241.230311,216.591704 C237.652132,202.359096 238.415251,187.210445 239.144453,172.553742 C239.212286,171.281459 239.280119,169.992212 239.330994,168.719929 C239.381868,167.73603 239.449701,166.667312 239.517534,165.530739 C240.043238,157.116707 240.840273,144.410839 234.803156,139.593127 C229.749614,135.572712 221.15181,134.503994 213.554539,133.537059 C210.603813,133.163856 207.822669,132.82458 205.431564,132.315667 C202.616503,131.738898 194.10349,129.974666 191.712385,127.006005 C191.10189,129.330042 190.542269,131.755862 189.999607,134.130791 C188.507286,140.7297 186.96409,147.532174 183.96249,152.231139 C184.725609,152.451668 185.488727,152.689161 186.234888,152.926654 C187.981582,153.486459 189.626527,153.995372 191.10189,154.249829 C192.390712,154.453394 193.696493,154.656959 194.9514,154.826597 C198.61437,155.352474 202.073841,155.844424 205.685936,156.947069 L205.872477,156.99796 C209.620238,158.134533 213.181458,159.220215 216.929219,159.271106 C217.760171,155.878351 218.998119,153.842698 220.643064,153.130219 C222.576298,152.298994 224.306034,152.36685 225.3744,153.316821 C226.188393,154.0293 226.476682,155.131945 226.154477,156.268518 C225.577898,158.25328 223.390291,159.729128 220.3039,160.204114 C219.506865,160.373752 218.692871,160.441607 217.895836,160.475534 Z M506.965213,204.462604 C507.473959,204.513496 509.695482,204.598315 511.255636,202.443915 C512.781874,200.340407 511.611758,198.253862 511.323469,197.778877 L499.164444,190.6032 C499.334026,193.860245 499.571441,197.117289 499.876688,200.22166 L506.965213,204.462604 Z M445.339136,167.702103 L498.604824,199.475254 C498.316534,196.35392 498.096078,193.113838 497.926496,189.890721 L449.883932,161.561216 C448.781649,163.664724 447.136704,165.870015 445.339136,167.702103 Z M450.392678,160.475534 L497.858663,188.465764 C497.502541,180.865993 497.451666,173.401931 497.485583,167.786922 C497.485583,167.447646 497.485583,167.193189 497.485583,167.040515 C497.485583,166.412856 497.553416,165.327174 497.655165,163.953108 C497.960412,159.644309 498.520033,151.620443 497.04467,148.68571 C495.247101,145.08939 491.431507,142.850171 488.718196,142.03591 C487.005419,141.526997 482.833703,138.592264 479.153775,136.01377 C477.288374,134.707559 475.524721,133.469204 474.422439,132.790653 C472.658787,131.704971 468.453154,127.531882 463.993149,123.104337 C460.296263,119.440161 456.480669,115.657239 454.767892,114.384956 C453.733442,113.621586 452.478536,112.451086 451.020131,111.093984 C447.391077,107.718192 442.422326,103.087082 438.488025,103.087082 C434.977679,103.087082 429.381475,105.580757 424.446641,107.786047 C421.63158,109.041367 418.986102,110.228831 417.052868,110.788636 C411.948452,112.264484 401.875284,117.387544 401.773535,117.438436 C401.722661,117.472363 401.654828,117.489327 401.603953,117.489327 L392.24303,118.965175 C390.36067,119.779437 389.275346,120.831191 389.020973,122.137402 C388.868349,122.934699 389.037931,123.74896 389.343179,124.51233 L400.569503,131.128203 C401.688744,131.111239 402.909734,131.213021 404.26639,131.450514 C405.249965,131.382659 416.238875,130.636253 420.173176,129.245223 C420.241009,129.22826 420.308841,129.211296 420.376674,129.211296 C420.478423,129.211296 430.534632,129.431825 435.842547,127.989904 C436.079962,127.922049 436.334335,128.006868 436.47,128.210433 C436.537833,128.312216 443.863773,138.269952 447.882865,139.932402 C448.103321,140.017221 448.238987,140.23775 448.255945,140.475243 C448.255945,140.593989 448.527276,152.50256 450.630092,155.539076 C451.257546,156.438156 451.291462,157.76133 450.7488,159.440744 C450.664009,159.763056 450.528343,160.119295 450.392678,160.475534 Z M390.445461,167.786922 C390.445461,167.939596 390.377629,168.09227 390.275879,168.211016 C389.377095,169.110096 387.969565,170.857365 387.969565,171.756445 C387.969565,172.333213 388.39352,173.588533 389.529719,174.691178 C390.547211,175.675077 392.42957,176.81165 395.702502,176.879505 C394.888508,174.843852 393.226605,171.145749 391.734284,169.992212 C391.20858,169.602046 390.801584,168.838676 390.445461,167.786922 Z M414.475223,156.709576 C415.407923,157.269381 416.594997,158.779157 418.477356,161.22194 C420.749754,164.173637 423.581773,167.837813 426.719039,170.29756 C431.196002,173.809062 433.587107,172.842127 437.199203,171.366278 C437.945363,171.06093 438.72544,170.755582 439.57335,170.450234 C440.709549,170.043104 442.066204,169.12706 443.405902,167.905668 L420.325799,154.148046 C419.10481,155.114981 418.341691,155.793532 418.307774,155.810496 C418.222983,155.895315 418.104276,155.946206 417.96861,155.96317 C416.408457,156.132808 415.136592,155.708713 414.136059,154.996235 C414.305641,155.759605 414.424348,156.370301 414.475223,156.709576 Z M389.851925,167.193189 C390.038465,167.193189 390.225005,167.294972 390.326754,167.447646 C389.631468,165.157536 389.156639,161.629071 388.647893,157.320272 C388.359604,154.962307 388.105231,152.757016 387.799983,151.315095 C387.698234,151.026711 387.206446,149.58479 387.155572,147.871449 C386.748575,146.599166 386.104164,144.478694 385.527585,142.069838 C385.459752,142.765353 385.341045,143.325157 385.188421,143.69836 C385.137547,143.800143 385.069714,143.884962 384.984923,143.952817 C384.086139,144.59744 381.678075,146.429528 380.796249,147.600029 C380.948873,148.600891 381.949406,152.740053 387.460819,153.554314 C387.698234,153.588241 387.884774,153.757879 387.952607,153.978408 C388.02044,154.198937 387.935649,154.453394 387.766067,154.589104 C385.57846,156.404228 382.186821,159.457708 381.525451,160.628208 C381.525451,161.171049 381.610242,163.545978 383.306062,165.259319 C384.73055,166.684276 386.918157,167.3289 389.834966,167.193189 C389.834966,167.193189 389.834966,167.193189 389.851925,167.193189 Z M421.309375,153.367712 L444.27077,167.057479 C446.068338,165.242355 447.781116,163.003137 448.849482,160.933556 L428.245276,148.787493 C425.667631,150.178523 423.157818,151.959719 421.309375,153.367712 Z M178.637617,152.485596 C178.094955,152.485596 177.586209,152.536487 177.094421,152.655234 C173.702782,153.452531 170.853806,156.319409 168.411826,159.983585 C173.601033,159.15236 178.739366,157.014924 181.995339,152.960582 C180.825224,152.672198 179.689025,152.485596 178.637617,152.485596 Z M429.500182,148.159833 L449.34127,159.864838 C449.459977,159.593418 449.561726,159.321998 449.646517,159.050577 C450.070472,157.76133 450.070472,156.777431 449.680434,156.200663 C447.577617,153.147183 447.170621,142.985882 447.102788,140.848446 C443.151529,138.897612 437.080495,130.958565 435.774714,129.211296 C430.4668,130.53447 421.614622,130.39876 420.461465,130.364833 C416.137126,131.840681 404.758177,132.570123 404.26639,132.604051 C404.215515,132.604051 404.16464,132.604051 404.130724,132.604051 C403.672853,132.519232 403.214982,132.451377 402.791027,132.400486 L422.682988,144.139418 C427.685656,143.596578 431.450375,141.476106 431.501249,141.442178 C431.738664,141.306468 432.06087,141.357359 432.24741,141.560925 C433.061403,142.493932 436.65654,144.241201 440.065137,145.750977 C443.711149,146.531311 445.712216,148.108942 445.830923,148.193761 C446.068338,148.380362 446.119213,148.702674 445.966589,148.957131 C445.813965,149.211587 445.508718,149.31337 445.237387,149.211587 C444.694724,149.008022 442.354494,148.058051 439.709015,146.904514 C438.386276,146.61613 436.826122,146.446492 435.045512,146.514347 C433.383609,146.565238 431.450375,147.226826 429.500182,148.159833 Z M223.169835,153.774843 C222.576298,153.774843 221.864054,153.927517 221.134851,154.249829 C219.879945,154.792669 218.89637,156.472083 218.167167,159.271106 C218.811579,159.237179 219.472948,159.169324 220.134318,159.067541 C223.220709,158.575591 224.679114,157.150634 225.018278,155.96317 C225.221776,155.267655 225.069152,154.639995 224.594323,154.232865 C224.255159,153.927517 223.763371,153.774843 223.169835,153.774843 Z M408.132858,145.513484 L420.207092,152.723089 C421.970744,151.349023 424.446641,149.567827 427.058203,148.108942 L422.428616,145.377774 C420.970211,145.513484 419.427015,145.49652 417.815987,145.292955 C417.731196,145.275991 417.646405,145.259028 417.578572,145.208136 L400.298172,134.48703 C403.384564,137.574437 406.386164,141.560925 408.132858,145.513484 Z M424.344891,145.123317 L428.279193,147.447355 C430.585507,146.25989 432.942696,145.411702 435.011596,145.326883 C435.43555,145.309919 435.859505,145.309919 436.266502,145.326883 C434.31631,144.376911 432.586574,143.42694 431.704748,142.697497 C430.704214,143.206411 427.956987,144.512621 424.344891,145.123317 Z M394.227139,139.06725 C394.294972,140.593989 394.634135,141.781454 394.651094,141.798417 C394.701968,141.985019 394.668052,142.17162 394.566303,142.324294 C394.447595,142.476968 394.278013,142.561787 394.091473,142.561787 C391.700368,142.578751 390.038465,143.257302 389.13968,144.546549 C388.546144,145.394738 388.359604,146.446492 388.342645,147.430391 C389.919757,145.36081 392.887441,143.528722 394.973299,143.121592 C395.176798,143.087664 395.210714,143.002845 395.227672,142.951954 C395.499003,142.39215 394.922425,140.746663 394.227139,139.06725 Z M418.104276,144.122455 C418.935228,144.224237 419.766179,144.275129 420.563214,144.275129 L400.281214,132.315667 C399.908134,132.332631 399.56897,132.366558 399.229806,132.41745 L418.104276,144.122455 Z M129.662352,138.609228 C129.764101,138.880648 129.899767,139.118141 130.052391,139.355634 C131.00205,140.780591 132.663953,141.255577 134.902434,140.797555 C133.427071,140.10204 131.595586,139.355634 129.662352,138.609228 Z M391.496869,129.974666 C392.158239,130.907673 392.650027,131.78979 392.9044,132.587087 C393.141814,133.333493 393.430104,134.113827 393.752309,134.894161 C394.006682,134.35132 394.328888,133.842407 394.752843,133.367421 C395.125923,132.943327 395.566836,132.570123 396.058624,132.264776 C394.905466,131.399623 393.820142,130.738036 392.853525,130.330905 C392.395654,130.161267 391.937783,130.042521 391.496869,129.974666 Z M391.462953,127.582773 L397.788359,131.501406 C398.042732,131.416587 398.314064,131.365695 398.602353,131.29784 L390.632002,126.598874 C391.005082,127.124752 391.344246,127.464027 391.462953,127.582773 Z M390.716793,128.73631 C390.8355,128.73631 390.954207,128.73631 391.072915,128.753274 L390.784625,128.566672 C390.750709,128.549709 390.716793,128.515781 390.682876,128.481854 C390.598085,128.397035 389.258388,127.090824 388.427436,125.309628 L385.629334,123.664141 C387.325154,125.224809 389.13968,127.006005 390.547211,128.73631 C390.598085,128.73631 390.665918,128.73631 390.716793,128.73631 Z M209.484572,121.390995 C213.758037,122.951663 218.167167,124.325729 222.830671,123.799852 C223.000253,123.240047 223.186793,122.680242 223.356375,122.154365 C224.255159,119.372306 225.103069,116.725957 224.71303,113.672478 C224.102535,113.248383 223.390291,112.87518 222.627172,112.586796 C221.474015,113.384093 220.3039,114.096572 219.320325,113.655514 C219.08291,113.553731 218.930286,113.299274 218.964202,113.027854 C218.981161,112.841253 218.981161,111.670752 218.947244,111.450223 C218.913328,111.280585 218.964202,111.110947 219.065952,110.975237 C219.184659,110.822563 219.354241,110.737744 219.540781,110.754708 C220.473482,110.771672 221.474015,110.958273 222.440632,111.263621 C223.000253,110.873455 223.542915,110.517215 224.051661,110.279722 C220.86352,107.005714 217.319258,109.126186 213.605413,111.34844 C212.299632,112.128774 210.976893,112.909108 209.671112,113.451948 C210.027234,114.384956 210.247691,115.402783 210.264649,116.522392 C210.298565,118.456262 210.027234,120.118712 209.484572,121.390995 Z M204.397114,120.797263 C204.532779,121.407959 204.770194,121.899909 205.075442,122.239184 C205.550271,122.782025 206.177724,122.968627 206.788219,122.731134 C207.110425,122.612387 207.43263,122.374894 207.737878,122.001691 C207.653087,121.967764 207.585254,121.9508 207.500463,121.916872 C206.449055,121.543669 205.414605,121.153503 204.397114,120.797263 Z M193.306455,118.320552 C193.187747,118.524117 192.984249,118.999103 192.746834,119.558908 C192.611169,119.898183 192.441587,120.28835 192.238089,120.763336 C191.966757,121.374032 191.780217,122.08651 191.695426,122.832916 C192.068507,121.696343 192.475503,120.610662 192.933375,119.592835 C193.102956,119.185705 193.289497,118.778574 193.476037,118.388407 C193.425162,118.35448 193.357329,118.337516 193.306455,118.320552 Z M362.311817,114.26621 L375.098296,122.171329 C375.590083,121.67938 376.590617,120.491915 376.811073,118.541081 L362.311817,114.26621 Z M204.278406,119.508016 C205.499396,119.915147 206.720386,120.373169 207.90746,120.814227 C208.060084,120.865118 208.195749,120.91601 208.348373,120.983865 C208.806244,119.966038 209.111492,118.507154 209.077575,116.539356 C209.060617,115.555457 208.857119,114.67334 208.551871,113.842115 C207.670045,114.079608 206.805177,114.164427 205.974226,114.028717 C204.770194,116.234008 204.295365,118.083059 204.278406,119.508016 Z M195.154898,117.625037 C195.477104,117.692892 195.867142,117.743784 196.325013,117.760747 C198.61437,117.896458 200.886768,118.422335 203.108291,119.117849 C203.21004,117.472363 203.786619,115.419746 205.143274,113.027854 C205.27894,112.790361 205.567229,112.671615 205.821602,112.756434 C206.533846,112.959999 207.280007,112.926071 208.043125,112.73947 C207.381756,111.467187 206.466013,110.31365 205.516355,109.109222 C204.43103,107.718192 203.311789,106.310199 202.531712,104.664713 C199.971025,108.820838 197.325547,113.112673 195.154898,117.625037 Z M220.151276,111.959136 C220.151276,112.162701 220.151276,112.366267 220.151276,112.552868 C220.422607,112.501977 220.761771,112.315375 221.117893,112.11181 C220.795687,112.060919 220.473482,111.993064 220.151276,111.959136 Z M218.947244,111.450223 C218.947244,111.467187 218.947244,111.467187 218.947244,111.48415 C218.947244,111.467187 218.947244,111.450223 218.947244,111.450223 Z M203.769661,41.0166268 C203.87141,41.4407212 203.990117,41.8817793 204.108824,42.3228375 C204.888901,45.2236431 205.821602,47.9378472 206.737345,50.5672324 C208.806244,56.5215176 210.756437,62.1534911 210.773395,69.5666611 C210.790353,75.5039825 208.65362,80.7288254 206.601679,85.7840305 C204.922818,89.9062279 203.176124,94.1810994 202.684336,98.7273912 C202.548671,99.9148555 202.616503,100.96661 202.83696,101.933545 C204.736278,98.8461377 206.652554,95.6739116 208.331415,92.4338305 C213.198416,83.0358988 213.571497,75.0459606 214.029368,64.9355503 C214.080243,63.6463034 214.148075,62.3061651 214.215908,60.9320993 C214.521156,55.2661983 214.114159,54.757285 211.502597,51.4832763 C211.027768,50.8895442 210.502064,50.2109931 209.87461,49.4136957 C208.450122,47.5476804 207.703962,45.8682666 207.093467,44.5111645 C206.228599,42.5942579 205.702895,41.3898298 203.769661,41.0166268 Z M188.083331,42.7299681 C187.303254,42.8317508 186.540135,42.9165696 185.810933,43.0013885 C180.333436,43.5781569 179.570318,45.1218605 177.314878,49.7360074 C176.890923,50.60116 176.399135,51.585059 175.839515,52.6877044 C171.973047,60.0669467 166.732965,66.547109 161.662465,72.8067422 C159.780105,75.1477432 157.812954,77.5565993 155.964511,79.999383 C151.84367,85.3938637 147.264958,91.3820764 143.432406,97.8113474 C144.161608,97.3024341 144.924727,96.8444122 145.687846,96.3694264 C147.061459,95.5212377 148.485948,94.6560851 149.605189,93.6382586 C152.013252,91.4329678 154.166943,88.9562565 156.235842,86.5643642 C157.28725,85.3599361 158.372575,84.1046167 159.474858,82.9001886 C166.444675,75.3513085 171.023388,68.1077764 173.923239,60.0839105 C176.772216,52.1787911 178.976781,47.954811 186.896257,43.3915554 C187.269338,43.1710263 187.676334,42.9504972 188.083331,42.7299681 Z M194.680069,64.4096733 C192.170256,65.4274998 189.914816,68.5997258 187.896791,71.4326764 C187.065839,72.6031769 186.285762,73.7058223 185.539602,74.5540111 C184.267737,76.0298595 182.944998,77.4548167 181.656175,78.8458463 C180.587809,79.999383 179.553359,81.1189922 178.552826,82.2555652 C185.827891,77.1833963 193.577786,71.4666039 194.680069,64.4096733 Z M210.586855,18.0307109 C209.281074,18.0307109 207.737878,19.5744145 207.076508,21.5931038 C206.703428,22.712713 205.83856,26.56349 210.213774,29.1928752 C210.485105,29.3455492 210.569896,29.6848247 210.434231,29.9732089 C208.212707,34.3837905 208.110958,40.1514742 210.179858,44.0022513 C211.553472,46.5637814 212.520089,47.7682095 213.266249,47.8869559 C213.961535,48.0057023 214.86032,47.1744773 216.098268,46.0209406 C216.623972,45.5289911 217.217508,44.9861503 217.912794,44.4093819 C218.472415,43.9343962 219.065952,43.3576278 219.676447,42.7638957 C220.914395,41.5594676 222.186259,40.3041482 223.593789,39.5238145 C224.611281,38.9640099 225.984895,39.031865 227.426341,39.0827564 C229.834405,39.184539 231.445433,39.1336477 232.140719,37.6069079 C232.649465,36.4872987 232.005054,34.9775227 231.326726,33.365964 C230.580565,31.6017313 229.800489,29.7866074 230.529691,28.2089762 C230.987562,27.2081135 231.971137,26.4617074 233.531291,25.9358303 C233.633301,25.8340477 233.633301,25.7661926 233.633301,25.7492288 C233.649999,25.3420982 232.836005,24.5278369 232.106803,23.8153584 C230.410984,22.1189808 228.070753,19.7949436 228.596457,16.4191522 C228.799955,15.0790139 229.03737,14.2477889 229.291743,13.6879844 C223.610748,12.7040854 219.625572,13.1960349 217.997585,15.0959777 C216.844428,16.4700435 216.810512,18.6583706 217.912794,21.5931038 C217.963669,21.7457777 217.963669,21.9154155 217.895836,22.0680895 C217.828003,22.2207635 217.692338,22.3225461 217.539714,22.3734374 C216.386557,22.7296767 214.555072,22.7296767 213.367998,22.3734374 C213.147542,22.3055823 212.97796,22.1189808 212.944044,21.8814879 C212.655754,19.5404869 211.841761,18.1494573 210.72252,18.0307109 C210.688604,18.0307109 210.637729,18.0307109 210.586855,18.0307109 Z M200.869809,32.5686666 C200.327147,36.3515885 197.681669,38.6925895 194.510487,40.6264599 C196.443721,40.3380758 198.376955,40.0666554 200.157565,39.86309 C200.920684,39.7782712 201.61597,39.7273798 202.226465,39.7273798 C201.632928,37.1997773 201.175057,34.8078849 200.869809,32.5686666 Z M215.284274,1.15175421 C213.028835,1.15175421 210.603813,1.49102973 208.077042,2.28832718 C203.464413,3.74721187 199.869276,8.42921393 198.478704,14.8075935 C197.274672,20.3547481 198.105624,25.9527941 200.445855,28.1750487 C200.428896,27.8188094 200.411938,27.4795339 200.411938,27.1402584 C200.225398,20.9145527 201.395513,15.7914925 203.854452,11.8898241 C206.092933,8.34439505 209.840694,6.22392311 214.38549,5.91857515 C220.219109,5.51144453 226.476682,8.08993842 230.461858,12.5174838 C230.478816,12.5174838 230.495774,12.5005201 230.495774,12.5005201 C230.953646,12.2460634 231.47935,11.9576792 232.157678,10.0407726 C232.293343,9.43007669 231.699806,8.14082975 230.088778,6.63105372 C227.578965,4.25612514 222.186259,1.15175421 215.284274,1.15175421 Z" id="Shape"></path>
                </g>
            </g>
        </g>
    </g>
</svg>